<svg 
    xmlns="http://www.w3.org/2000/svg" 
    xmlns:xlink="http://www.w3.org/1999/xlink" 
    width="24px" height="24px" viewBox="0 0 24 24" 
    version="1.1" xml:space="preserve"
    fill="#714b67"
>
    <g>
        <g>
            <path d="M18,4c-0.6,0-1,0.4-1,1v14c0,0.6,0.4,1,1,1s1-0.4,1-1V5C19,4.4,18.6,4,18,4z"/>
            <path d="M12,4c-0.6,0-1,0.4-1,1v14c0,0.6,0.4,1,1,1s1-0.4,1-1V5C13,4.4,12.6,4,12,4z"/>
            <path d="M6,4C5.4,4,5,4.4,5,5v14c0,0.6,0.4,1,1,1s1-0.4,1-1V5C7,4.4,6.6,4,6,4z"/>
        </g>
    </g>
</svg>